<svg xmlns="http://www.w3.org/2000/svg" xmlns:xlink="http://www.w3.org/1999/xlink" version="1.1" x="0px" y="0px" viewBox="0 0 100 125" style="enable-background:new 0 0 100 100;" xml:space="preserve"><g><polygon points="32.812,54.999 29.642,52.646 24.936,52.174 24.236,53.316 23.283,53 22.816,51.236 21.407,51.138 21.993,49.469    20.818,49.351 19.64,50.297 18.817,49.115 19.523,47.118 22.701,46.646 23.283,48.292 24.112,48.177 24.112,46.646 26.345,43.588    29.168,42.058 32.812,40.416 30.224,34.648 29.049,35.354 28.112,32.768 25.872,32.885 25.293,37.473 24.467,37.592 21.052,33.944    21.758,32.061 25.293,31.357 25.293,26.885 16.465,27.828 11.883,25.122 9.764,27.121 3.996,23.944 0.824,25.826 1.999,27.594    0.703,27.594 0.352,28.886 2.115,29.121 0.352,30.532 0.938,32.531 2.468,32.885 0,34.885 3.881,33.004 5.996,31.823 9.408,33.944    12.115,38.531 12.115,42.648 13.762,45.707 16.465,49.941 19.761,51.113 21.172,51.821 22.816,53.938 23.965,53.76 22.701,55.823    23.757,60.053 25.994,62.051 23.283,72.996 24.23,75.348 26.934,76.053 25.293,74.287 27.522,70.054 32.345,65.937 32.697,64.055    35.052,63.7 37.405,58.879 33.288,56.882  "/><polygon points="88.999,55.826 88.747,57.824 87.053,57.209 87.366,56.127 85.514,55.977 83.114,58.213 80.568,59.135    81.191,62.599 80.956,63.287 81.887,63.827 85.662,62.893 87.122,63.742 87.817,63.355 88.28,64.756 90.204,65.297 91.595,64.446    92.365,60.292 90.285,58.213  "/><polygon points="79.645,53.897 81.649,54.281 82.577,51.43 82.034,50.964 79.338,52.662  "/><polygon points="91.283,55.977 90.593,54.511 87.433,52.973 85.814,53.124 87.893,55.283 89.087,55.367 89.59,54.896  "/><polygon points="89.59,35.625 89.054,35.625 88.974,38.399 87.588,41.328 85.814,42.642 85.736,43.795 88.974,41.869    89.127,39.865 90.204,38.863 89.362,38.17 89.818,36.554  "/><polygon points="97.916,63.607 98.149,65.766 95.759,68.004 97.303,68.157 98.685,66.073 99.766,64.611 99.073,64.537  "/><polygon points="46.392,31.168 46.392,33.412 47.949,32.729 48.388,32.039 46.701,28.795 45.708,29.484 45.769,30.355    44.831,31.484 44.766,32.666 45.893,32.666  "/><polygon points="60.492,57.616 60.429,60.115 61.433,60.548 62.429,57.554 62.177,56.308  "/><path d="M97.223,31.002L100,29.458l-0.771-2.156l-20.451-2.885c0,0-12.392,1.311-19.226,2.03l-5.921-1.091l-2.375,1.309   l-0.934,2.308l-1.126,0.877l-0.062,1.934l0.625,0.371l1.309-0.746l0.63,1.994l1.119-0.436l0.751-1.998l-0.751-0.809l0.689-1.497   l0.805-1.001l0.494,0.078l-0.461,1.171l-0.527,0.377l0.192,0.475l-0.036,0.08l0.069,0.007l0.459,1.119l1.312-0.371l0.451,0.529   l-1.451,0.471l0.316,1.186l-0.942-0.318l-0.682,1.75l-2.438-0.062l-0.437-1.248l-0.56,0.748l0.188,0.812l-0.876,0.064l-1.06,1.434   l-1.934,0.624l0.501,1.062l0.805,1.309l-2.554-0.188l0.124,2.499l1.998,0.312l1.309-2.062l1.876-0.937l0.807,0.937l1.121,1.502   l0.816-0.942l-1.562-1.056l-0.064-1l0.749,0.373l1.251,1.002l-0.062,0.992l0.934,1.19l0.438-1.502l0.5,0.252l0.684,1.187   l2.115,0.352l-0.344,1.156l-0.795,0.476l-3.064-0.784l-0.771,1.078l-2.002-1.311l-0.31-1.305l-4.932,0.844l-2.546,3.084   l-0.465,4.161l2.626,2.546l4.703-0.31l1.384,4.318l-0.535,2.465l2.232,5.396l2.546-0.463l2.541-4.78l1.387-1.079l-0.382-3.311   l2.467-2.237l0.771-2.699l-2.469,1.157l-2.52-5.772l0.515-0.088l2.47,4.856l4.781-2.851l-1.624-1.232l-1.232,0.616l-0.772-1.852   l0.541-0.305l1.077,0.922l3.706,0.694l1.536,1.852l1.389,3.467l1.083-1.076v-1.311l3.003-2.086l1.079,2.317l0.894-0.226   l0.185,2.305l0.927,1.695l-2.005-1.003l1.467,2.079l1.619,1.546l3.853,0.692l-2.08-0.846l-1.547-0.541l-0.536-2.468l-1.236-1.392   l0.047-1.391l1.42,1.471l1.387-1.156l-1.307-1.928l0.613-1.002l2.854-0.154l1.309-2.387L82.19,41.1l1.156-1.234l0.852,1.156   l0.308,1.463l1.001-0.535l-0.385-1.621l0.847-1.233l1.389-0.229l1.616-4.473l-1.386-1.002l1.925-1.852l2.546,0.153l2.083-1.693   l1.617-0.234l-2.619,3.163l0.076,2.773l2.006-2.467l-0.078-1.775L97.223,31.002z M59.495,40.202l-1.368-0.37l-1.877,0.311   l-0.436-0.808l0.997-1.749l3.247,1.688L59.495,40.202z M61.745,41.269l0.306-1.189l-0.684-1.744l1.937-1.06v0.934l-0.751,0.312   l0.629,0.938l0.304,1.935L61.745,41.269z"/><polygon points="35.535,26.227 33.798,25.754 31.652,28.046 34.413,35.233 35.719,35.554 35.825,33.219 36.707,32.674    36.758,31.787 37.668,30.076 37.034,28.777  "/></g></svg>